<?xml version="1.0" encoding="utf-8"?>
<!-- Generator: Adobe Illustrator 16.0.0, SVG Export Plug-In . SVG Version: 6.00 Build 0)  -->
<!DOCTYPE svg PUBLIC "-//W3C//DTD SVG 1.1//EN" "http://www.w3.org/Graphics/SVG/1.1/DTD/svg11.dtd">
<svg version="1.1" id="Layer_1" xmlns="http://www.w3.org/2000/svg" xmlns:xlink="http://www.w3.org/1999/xlink" x="0px" y="0px"
	 width="330px" height="468px" viewBox="0 0 330 468" enable-background="new 0 0 330 468" xml:space="preserve">
<g>
	<g>
		<g>
			<g>
				<path fill="#FFFFFF" d="M142.206,64.915c9.646,13.421,26.281,18.309,26.281,18.309c2.271-3.78,1.135-33.516,1.135-33.516
					c5.296,14.18,18.149,28.248,18.149,28.248c13.99-12.476,20.419-63.731,20.419-63.731h2.271h3.021
					c-0.946,35.074,18.341,62.313,18.341,62.313c6.425-3.972,18.711-25.977,18.711-25.977c-1.694,6.424,1.139,35.154,1.139,35.154
					c1.513,0,27.222-18.173,27.222-18.173c-2.163,6.264-4.347,12.53-6.509,18.802c-0.713,2.058-1.436,4.153-2.19,6.239h0.038
					c-0.562,2.403-1.513,4.716-2.756,6.941c-0.035,0.073-0.06,0.157-0.095,0.23h-0.049c-7.863,13.705-28.373,23.497-56.45,23.497
					c-31.022,0-56.468-12.308-59.106-27.982c-0.635-2.316-1.131-4.691-1.757-6.729C147.572,80.621,144.826,72.778,142.206,64.915z"
					/>
				<path fill="#FFFFFF" d="M104.211,152.468c0,7.301,6.11,13.219,13.646,13.219s13.649-5.918,13.649-13.219
					c0-7.298-6.114-13.22-13.649-13.22S104.211,145.17,104.211,152.468"/>
				<path fill="#FFFFFF" d="M298.237,120.464c0,7.302,6.106,13.22,13.646,13.22c7.535,0,13.646-5.918,13.646-13.22
					c0-7.301-6.11-13.219-13.646-13.219C304.344,107.245,298.237,113.163,298.237,120.464"/>
				<path fill="#FFFFFF" d="M252.229,364.492c0,7.301,6.113,13.223,13.646,13.223c7.539,0,13.649-5.922,13.649-13.223
					c0-7.302-6.11-13.216-13.649-13.216C258.342,351.276,252.229,357.19,252.229,364.492"/>
				<path fill="#FFFFFF" d="M150.217,312.484c0,7.302,6.109,13.22,13.648,13.22c7.531,0,13.646-5.918,13.646-13.22
					c0-7.297-6.114-13.219-13.646-13.219C156.326,299.266,150.217,305.188,150.217,312.484"/>
				<path fill="#FFFFFF" d="M218.227,382.494c0,7.297,6.11,13.223,13.646,13.223s13.646-5.926,13.646-13.223
					c0-7.299-6.11-13.216-13.646-13.216S218.227,375.195,218.227,382.494"/>
				<path fill="#FFFFFF" d="M218.227,262.483c0,7.298,6.11,13.212,13.646,13.212s13.646-5.914,13.646-13.212
					c0-7.302-6.11-13.22-13.646-13.22S218.227,255.182,218.227,262.483"/>
				<path fill="#FFFFFF" d="M267.31,180.775c0,7.305,6.114,13.226,13.649,13.226s13.645-5.921,13.645-13.226
					c0-7.295-6.109-13.213-13.645-13.213S267.31,173.48,267.31,180.775"/>
				<path fill="#FFFFFF" d="M200.322,141.113c0,3.63,3.04,6.575,6.781,6.575c3.748,0,6.788-2.945,6.788-6.575
					c0-3.626-3.04-6.57-6.788-6.57C203.362,134.543,200.322,137.487,200.322,141.113"/>
				<path fill="#FFFFFF" d="M212.225,426.504c0,7.295,6.114,13.216,13.646,13.216c7.536,0,13.646-5.921,13.646-13.216
					c0-7.301-6.109-13.223-13.646-13.223C218.339,413.281,212.225,419.203,212.225,426.504"/>
				<path fill="#FFFFFF" d="M53.629,430.238c0,7.707,6.446,13.953,14.411,13.953c7.958,0,14.407-6.246,14.407-13.953
					c0-7.706-6.449-13.959-14.407-13.959C60.075,416.279,53.629,422.532,53.629,430.238"/>
				<path fill="#FFFFFF" d="M16.1,359.853c0,9.604,8.035,17.384,17.942,17.384c9.911,0,17.942-7.78,17.942-17.384
					c0-9.6-8.031-17.376-17.942-17.376C24.135,342.477,16.1,350.253,16.1,359.853"/>
				<path fill="#FFFFFF" d="M90.213,118.466c0,7.298,6.104,13.216,13.642,13.216c7.539,0,13.649-5.918,13.649-13.216
					c0-7.305-6.11-13.22-13.649-13.22C96.316,105.246,90.213,111.161,90.213,118.466"/>
				<path fill="#FFFFFF" d="M130.884,403.975c0,9.799,8.199,17.743,18.313,17.743c10.11,0,18.31-7.944,18.31-17.743
					c0-9.792-8.199-17.739-18.31-17.739C139.083,386.235,130.884,394.183,130.884,403.975"/>
				<path fill="#FFFFFF" d="M191.299,335.482c0,7.797,6.529,14.124,14.582,14.124s14.585-6.327,14.585-14.124
					c0-7.805-6.532-14.131-14.585-14.131S191.299,327.678,191.299,335.482"/>
				<path fill="#FFFFFF" d="M5.64,253.802c0,17.618,14.743,31.896,32.926,31.896c18.187,0,32.93-14.277,32.93-31.896
					c0-17.61-14.743-31.898-32.93-31.898C20.383,221.903,5.64,236.191,5.64,253.802"/>
				<path fill="#FFFFFF" d="M191.701,227.454c0,7.284,6.1,13.195,13.617,13.195c7.521,0,13.621-5.911,13.621-13.195
					c0-7.29-6.1-13.198-13.621-13.198C197.801,214.256,191.701,220.164,191.701,227.454"/>
				<path fill="#FFFFFF" d="M152.882,170.878c0,9.286,7.772,16.811,17.355,16.811c9.589,0,17.362-7.524,17.362-16.811
					c0-9.285-7.773-16.817-17.362-16.817C160.654,154.061,152.882,161.593,152.882,170.878"/>
				<path fill="#FFFFFF" d="M116.882,219.954c0,9.799,8.199,17.743,18.31,17.743c10.113,0,18.313-7.944,18.313-17.743
					c0-9.8-8.199-17.739-18.313-17.739C125.081,202.215,116.882,210.154,116.882,219.954"/>
				<path fill="#FFFFFF" d="M241.877,429.173c0,4.717,3.951,8.549,8.818,8.549c4.873,0,8.824-3.832,8.824-8.549
					c0-4.72-3.951-8.548-8.824-8.548C245.828,420.625,241.877,424.453,241.877,429.173"/>
				<path fill="#FFFFFF" d="M249.877,449.18c0,4.717,3.951,8.542,8.821,8.542c4.874,0,8.825-3.825,8.825-8.542
					c0-4.719-3.951-8.552-8.825-8.552C253.828,440.628,249.877,444.461,249.877,449.18"/>
				<path fill="#FFFFFF" d="M165.863,375.168c0,4.716,3.951,8.541,8.824,8.541c4.874,0,8.825-3.825,8.825-8.541
					c0-4.72-3.951-8.545-8.825-8.545C169.814,366.623,165.863,370.448,165.863,375.168"/>
				<path fill="#FFFFFF" d="M182.643,295.859c0,4.717,3.951,8.545,8.824,8.545c4.87,0,8.821-3.828,8.821-8.545
					c0-4.72-3.951-8.552-8.821-8.552C186.594,287.308,182.643,291.14,182.643,295.859"/>
				<path fill="#FFFFFF" d="M195.869,193.146c0,4.72,3.951,8.545,8.824,8.545c4.869,0,8.817-3.825,8.817-8.545
					c0-4.716-3.948-8.545-8.817-8.545C199.82,184.601,195.869,188.43,195.869,193.146"/>
				<path fill="#FFFFFF" d="M237.877,285.156c0,4.716,3.948,8.545,8.821,8.545c4.866,0,8.825-3.829,8.825-8.545
					c0-4.721-3.959-8.549-8.825-8.549C241.825,276.607,237.877,280.436,237.877,285.156"/>
				<path fill="#FFFFFF" d="M149.867,449.18c0,4.717,3.947,8.542,8.82,8.542c4.874,0,8.825-3.825,8.825-8.542
					c0-4.719-3.951-8.552-8.825-8.552C153.814,440.628,149.867,444.461,149.867,449.18"/>
				<path fill="#FFFFFF" d="M227.879,233.152c0,4.72,3.944,8.549,8.817,8.549c4.87,0,8.821-3.829,8.821-8.549
					c0-4.717-3.951-8.549-8.821-8.549C231.823,224.604,227.879,228.436,227.879,233.152"/>
				<path fill="#FFFFFF" d="M231.876,137.139c0,4.719,3.95,8.548,8.82,8.548s8.821-3.829,8.821-8.548
					c0-4.717-3.951-8.545-8.821-8.545S231.876,132.422,231.876,137.139"/>
				<path fill="#FFFFFF" d="M165.863,137.139c0,4.719,3.951,8.548,8.824,8.548c4.874,0,8.825-3.829,8.825-8.548
					c0-4.717-3.951-8.545-8.825-8.545C169.814,128.594,165.863,132.422,165.863,137.139"/>
				<path fill="#FFFFFF" d="M133.839,160.017c0,4.716,3.948,8.545,8.821,8.545s8.82-3.829,8.82-8.545c0-4.72-3.947-8.545-8.82-8.545
					S133.839,155.297,133.839,160.017"/>
				<path fill="#FFFFFF" d="M109.859,359.164c0,4.72,3.948,8.545,8.821,8.545c4.874,0,8.821-3.825,8.821-8.545
					c0-4.719-3.947-8.548-8.821-8.548C113.808,350.616,109.859,354.445,109.859,359.164"/>
				<path fill="#FFFFFF" d="M231.876,359.164c0,4.72,3.95,8.545,8.82,8.545s8.821-3.825,8.821-8.545
					c0-4.719-3.951-8.548-8.821-8.548S231.876,354.445,231.876,359.164"/>
				<path fill="#FFFFFF" d="M159.865,287.157c0,4.713,3.947,8.545,8.824,8.545c4.87,0,8.821-3.832,8.821-8.545
					c0-4.716-3.951-8.548-8.821-8.548C163.813,278.609,159.865,282.441,159.865,287.157"/>
				<path fill="#FFFFFF" d="M205.87,455.179c0,4.716,3.955,8.545,8.821,8.545c4.873,0,8.821-3.829,8.821-8.545
					c0-4.72-3.948-8.546-8.821-8.546C209.825,446.633,205.87,450.459,205.87,455.179"/>
				<path fill="#FFFFFF" d="M279.883,383.168c0,4.72,3.951,8.545,8.82,8.545c4.87,0,8.821-3.825,8.821-8.545
					c0-4.717-3.951-8.545-8.821-8.545C283.834,374.623,279.883,378.451,279.883,383.168"/>
				<path fill="#FFFFFF" d="M113.859,381.17c0,4.716,3.951,8.545,8.825,8.545c4.87,0,8.821-3.829,8.821-8.545
					c0-4.72-3.951-8.549-8.821-8.549C117.811,372.621,113.859,376.45,113.859,381.17"/>
				<path fill="#FFFFFF" d="M151.865,429.173c0,4.717,3.951,8.549,8.821,8.549c4.873,0,8.824-3.832,8.824-8.549
					c0-4.72-3.951-8.548-8.824-8.548C155.816,420.625,151.865,424.453,151.865,429.173"/>
				<path fill="#FFFFFF" d="M117.856,453.18c0,4.713,3.954,8.542,8.828,8.542c4.87,0,8.817-3.829,8.817-8.542
					c0-4.723-3.947-8.552-8.817-8.552C121.811,444.628,117.856,448.457,117.856,453.18"/>
				<path fill="#FFFFFF" d="M265.881,339.161c0,4.72,3.947,8.548,8.821,8.548c4.873,0,8.821-3.828,8.821-8.548
					s-3.948-8.545-8.821-8.545C269.828,330.616,265.881,334.441,265.881,339.161"/>
				<path fill="#FFFFFF" d="M231.125,456.24c0,2.477,2.074,4.486,4.636,4.486c2.557,0,4.636-2.01,4.636-4.486
					c0-2.48-2.079-4.492-4.636-4.492C233.199,451.748,231.125,453.76,231.125,456.24"/>
				<path fill="#FFFFFF" d="M191.121,432.233c0,2.48,2.075,4.489,4.633,4.489c2.561,0,4.635-2.009,4.635-4.489
					s-2.074-4.489-4.635-4.489C193.196,427.744,191.121,429.753,191.121,432.233"/>
				<path fill="#FFFFFF" d="M213.123,308.22c0,2.477,2.078,4.489,4.636,4.489s4.632-2.013,4.632-4.489
					c0-2.478-2.074-4.485-4.632-4.485S213.123,305.742,213.123,308.22"/>
				<path fill="#FFFFFF" d="M153.116,233.449c0,2.903,2.428,5.25,5.418,5.25c2.997,0,5.425-2.347,5.425-5.25
					s-2.428-5.254-5.425-5.254C155.544,228.195,153.116,230.546,153.116,233.449"/>
				<path fill="#FFFFFF" d="M201.119,254.218c0,2.474,2.075,4.489,4.636,4.489c2.558,0,4.636-2.016,4.636-4.489
					c0-2.48-2.078-4.496-4.636-4.496C203.194,249.722,201.119,251.737,201.119,254.218"/>
				<path fill="#FFFFFF" d="M192.969,156.771c0,1.324,1.107,2.393,2.474,2.393s2.478-1.068,2.478-2.393s-1.111-2.396-2.478-2.396
					S192.969,155.447,192.969,156.771"/>
				<path fill="#FFFFFF" d="M211.268,257.428c0,1.328,1.111,2.4,2.477,2.4c1.366,0,2.474-1.072,2.474-2.4
					c0-1.323-1.107-2.396-2.474-2.396C212.379,255.031,211.268,256.104,211.268,257.428"/>
				<path fill="#FFFFFF" d="M223.471,298.609c0,1.32,1.11,2.393,2.473,2.393c1.366,0,2.478-1.072,2.478-2.393
					c0-1.324-1.111-2.4-2.478-2.4C224.581,296.209,223.471,297.285,223.471,298.609"/>
				<path fill="#FFFFFF" d="M229.573,287.934c0,1.323,1.107,2.396,2.47,2.396c1.37,0,2.478-1.073,2.478-2.396
					c0-1.324-1.107-2.397-2.478-2.397C230.681,285.536,229.573,286.609,229.573,287.934"/>
				<path fill="#FFFFFF" d="M244.826,330.637c0,1.324,1.107,2.396,2.473,2.396c1.366,0,2.478-1.072,2.478-2.396
					s-1.111-2.393-2.478-2.393C245.934,328.244,244.826,329.313,244.826,330.637"/>
				<path fill="#FFFFFF" d="M231.097,345.886c0,1.327,1.11,2.403,2.477,2.403c1.37,0,2.474-1.076,2.474-2.403
					c0-1.32-1.104-2.393-2.474-2.393C232.207,343.493,231.097,344.565,231.097,345.886"/>
				<path fill="#FFFFFF" d="M249.398,347.416c0,1.324,1.107,2.396,2.474,2.396s2.478-1.072,2.478-2.396c0-1.328-1.111-2.4-2.478-2.4
					S249.398,346.088,249.398,347.416"/>
				<path fill="#FFFFFF" d="M231.097,321.484c0,1.324,1.11,2.396,2.477,2.396c1.37,0,2.474-1.072,2.474-2.396
					c0-1.32-1.104-2.394-2.474-2.394C232.207,319.091,231.097,320.164,231.097,321.484"/>
				<path fill="#FFFFFF" d="M215.844,318.438c0,1.324,1.111,2.396,2.478,2.396s2.474-1.072,2.474-2.396
					c0-1.327-1.107-2.399-2.474-2.399S215.844,317.11,215.844,318.438"/>
				<path fill="#FFFFFF" d="M185.347,347.538c0.066,1.32,1.226,2.341,2.592,2.268c1.362-0.066,2.414-1.195,2.348-2.516
					s-1.226-2.341-2.592-2.271C186.335,345.086,185.28,346.218,185.347,347.538"/>
				<path fill="#FFFFFF" d="M183.816,335.336c0.066,1.327,1.233,2.34,2.596,2.273c1.365-0.073,2.417-1.197,2.351-2.521
					c-0.066-1.32-1.226-2.338-2.592-2.271C184.805,332.887,183.757,334.012,183.816,335.336"/>
				<path fill="#FFFFFF" d="M188.396,321.613c0.063,1.32,1.229,2.334,2.592,2.268c1.362-0.07,2.418-1.195,2.352-2.522
					c-0.066-1.317-1.23-2.334-2.596-2.268C189.381,319.161,188.33,320.289,188.396,321.613"/>
				<path fill="#FFFFFF" d="M150.269,349.064c0.066,1.321,1.227,2.338,2.589,2.271c1.362-0.07,2.418-1.198,2.352-2.522
					c-0.063-1.32-1.227-2.334-2.596-2.268C151.25,346.612,150.202,347.741,150.269,349.064"/>
				<path fill="#FFFFFF" d="M135.017,370.417c0.066,1.32,1.223,2.333,2.589,2.267c1.365-0.066,2.42-1.194,2.351-2.519
					c-0.066-1.32-1.227-2.337-2.589-2.271C136.002,367.965,134.95,369.096,135.017,370.417"/>
				<path fill="#FFFFFF" d="M168.57,388.719c0.066,1.32,1.227,2.338,2.589,2.271c1.362-0.07,2.421-1.199,2.352-2.522
					c-0.066-1.321-1.227-2.334-2.593-2.268C169.557,386.27,168.504,387.398,168.57,388.719"/>
				<path fill="#FFFFFF" d="M179.243,411.598c0.07,1.32,1.229,2.337,2.593,2.271c1.365-0.069,2.417-1.198,2.351-2.522
					c-0.066-1.32-1.229-2.333-2.592-2.267S179.181,410.273,179.243,411.598"/>
				<path fill="#FFFFFF" d="M214.324,396.342c0.066,1.327,1.227,2.341,2.589,2.271c1.366-0.066,2.421-1.198,2.352-2.515
					c-0.066-1.321-1.227-2.341-2.589-2.271C215.31,393.893,214.258,395.024,214.324,396.342"/>
				<path fill="#FFFFFF" d="M212.798,440.576c0.066,1.32,1.227,2.337,2.589,2.271c1.369-0.07,2.421-1.198,2.354-2.522
					c-0.063-1.32-1.227-2.334-2.593-2.268C213.783,438.123,212.731,439.252,212.798,440.576"/>
				<path fill="#FFFFFF" d="M240.25,442.099c0.069,1.324,1.229,2.337,2.592,2.271c1.365-0.066,2.417-1.194,2.351-2.519
					c-0.066-1.323-1.229-2.337-2.589-2.271C241.238,439.65,240.187,440.782,240.25,442.099"/>
				<path fill="#FFFFFF" d="M170.094,437.525c0.066,1.321,1.227,2.338,2.593,2.271c1.362-0.073,2.417-1.198,2.347-2.522
					c-0.059-1.324-1.226-2.337-2.588-2.271C171.079,435.073,170.027,436.205,170.094,437.525"/>
				<path fill="#FFFFFF" d="M199.072,355.168c0.07,1.32,1.229,2.334,2.589,2.268c1.366-0.07,2.421-1.195,2.354-2.522
					c-0.066-1.321-1.23-2.334-2.596-2.268C200.058,352.716,199.01,353.844,199.072,355.168"/>
				<path fill="#FFFFFF" d="M196.022,388.719c0.066,1.32,1.226,2.338,2.589,2.271c1.365-0.07,2.421-1.199,2.351-2.522
					c-0.063-1.321-1.226-2.334-2.589-2.268C197.008,386.27,195.956,387.398,196.022,388.719"/>
				<path fill="#FFFFFF" d="M205.176,407.018c0.066,1.328,1.226,2.341,2.588,2.274c1.362-0.069,2.418-1.198,2.352-2.522
					c-0.066-1.316-1.227-2.334-2.592-2.268C206.16,404.568,205.109,405.697,205.176,407.018"/>
				<path fill="#FFFFFF" d="M170.094,417.693c0.066,1.324,1.227,2.341,2.593,2.274c1.362-0.069,2.417-1.194,2.347-2.522
					c-0.059-1.32-1.226-2.333-2.588-2.267C171.079,415.248,170.027,416.373,170.094,417.693"/>
				<path fill="#FFFFFF" d="M183.816,223.877c0,1.324,1.107,2.396,2.473,2.396c1.366,0,2.478-1.072,2.478-2.396
					c0-1.32-1.111-2.4-2.478-2.4C184.924,221.477,183.816,222.557,183.816,223.877"/>
				<path fill="#FFFFFF" d="M229.573,197.949c0,1.327,1.107,2.399,2.47,2.399c1.37,0,2.478-1.072,2.478-2.399
					c0-1.324-1.107-2.396-2.478-2.396C230.681,195.553,229.573,196.625,229.573,197.949"/>
				<path fill="#FFFFFF" d="M255.502,194.898c0,1.324,1.104,2.396,2.474,2.396c1.362,0,2.473-1.072,2.473-2.396
					c0-1.32-1.11-2.393-2.473-2.393C256.605,192.506,255.502,193.578,255.502,194.898"/>
				<path fill="#FFFFFF" d="M183.816,188.23c0,2.479,2.075,4.488,4.636,4.488s4.636-2.009,4.636-4.488
					c0-2.48-2.075-4.489-4.636-4.489S183.816,185.75,183.816,188.23"/>
				<path fill="#FFFFFF" d="M200.592,163.828c0,2.48,2.078,4.489,4.636,4.489s4.636-2.009,4.636-4.489s-2.078-4.489-4.636-4.489
					S200.592,161.348,200.592,163.828"/>
				<path fill="#FFFFFF" d="M218.897,188.23c0,2.479,2.075,4.488,4.632,4.488c2.562,0,4.64-2.009,4.64-4.488
					c0-2.48-2.078-4.489-4.64-4.489C220.973,183.741,218.897,185.75,218.897,188.23"/>
				<path fill="#FFFFFF" d="M153.314,208.059c0,2.477,2.076,4.486,4.633,4.486c2.561,0,4.636-2.01,4.636-4.486
					c0-2.483-2.075-4.492-4.636-4.492C155.391,203.566,153.314,205.575,153.314,208.059"/>
				<path fill="#FFFFFF" d="M179.243,208.059c0,2.477,2.075,4.486,4.633,4.486c2.561,0,4.636-2.01,4.636-4.486
					c0-2.483-2.075-4.492-4.636-4.492C181.318,203.566,179.243,205.575,179.243,208.059"/>
				<path fill="#FFFFFF" d="M283.128,120.198c0,2.48,2.079,4.489,4.636,4.489c2.558,0,4.64-2.009,4.64-4.489
					c0-2.479-2.082-4.489-4.64-4.489C285.207,115.709,283.128,117.719,283.128,120.198"/>
				<path fill="#FFFFFF" d="M252.627,143.077c0,2.477,2.075,4.489,4.636,4.489c2.558,0,4.636-2.013,4.636-4.489
					c0-2.48-2.078-4.493-4.636-4.493C254.702,138.584,252.627,140.597,252.627,143.077"/>
				<path fill="#FFFFFF" d="M257.203,158.33c0,2.477,2.075,4.488,4.633,4.488c2.557,0,4.639-2.012,4.639-4.488
					c0-2.484-2.082-4.49-4.639-4.49C259.278,153.84,257.203,155.846,257.203,158.33"/>
				<path fill="#FFFFFF" d="M240.421,194.931c0,2.479,2.082,4.489,4.636,4.489c2.561,0,4.639-2.01,4.639-4.489
					c0-2.48-2.078-4.489-4.639-4.489C242.503,190.441,240.421,192.45,240.421,194.931"/>
				<path fill="#FFFFFF" d="M173.692,326.021c0,2.48,2.075,4.49,4.632,4.49c2.561,0,4.637-2.01,4.637-4.49
					c0-2.479-2.076-4.492-4.637-4.492C175.768,321.529,173.692,323.542,173.692,326.021"/>
				<path fill="#FFFFFF" d="M157.116,360.227c0,2.48,2.075,4.489,4.632,4.489c2.561,0,4.636-2.009,4.636-4.489
					s-2.075-4.492-4.636-4.492C159.191,355.734,157.116,357.746,157.116,360.227"/>
				<path fill="#FFFFFF" d="M190.104,375.157c0,1.81,1.52,3.284,3.392,3.284c1.873,0,3.393-1.475,3.393-3.284
					c0-1.816-1.52-3.287-3.393-3.287C191.624,371.87,190.104,373.341,190.104,375.157"/>
				<path fill="#FFFFFF" d="M173.325,359.901c0,1.816,1.523,3.291,3.393,3.291c1.876,0,3.396-1.475,3.396-3.291
					c0-1.81-1.52-3.284-3.396-3.284C174.849,356.617,173.325,358.092,173.325,359.901"/>
				<path fill="#FFFFFF" d="M201.119,286.214c0,2.484,2.075,4.493,4.636,4.493c2.558,0,4.636-2.009,4.636-4.493
					c0-2.479-2.078-4.485-4.636-4.485C203.194,281.729,201.119,283.734,201.119,286.214"/>
				<path fill="#FFFFFF" d="M195.02,275.538c0,2.483,2.075,4.493,4.636,4.493c2.558,0,4.633-2.01,4.633-4.493
					c0-2.477-2.075-4.485-4.633-4.485C197.095,271.053,195.02,273.062,195.02,275.538"/>
				<path fill="#FFFFFF" d="M203.121,382.229c0,2.48,2.075,4.488,4.633,4.488c2.557,0,4.635-2.008,4.635-4.488
					s-2.078-4.489-4.635-4.489C205.196,377.739,203.121,379.748,203.121,382.229"/>
				<path fill="#FFFFFF" d="M137.109,378.229c0,2.48,2.074,4.488,4.635,4.488c2.558,0,4.64-2.008,4.64-4.488
					s-2.082-4.489-4.64-4.489C139.184,373.739,137.109,375.748,137.109,378.229"/>
				<path fill="#FFFFFF" d="M223.121,446.238c0,2.474,2.078,4.489,4.636,4.489s4.64-2.016,4.64-4.489c0-2.48-2.082-4.492-4.64-4.492
					S223.121,443.758,223.121,446.238"/>
				<path fill="#FFFFFF" d="M252.074,382.229c0,2.48,2.076,4.488,4.633,4.488c2.561,0,4.64-2.008,4.64-4.488
					s-2.079-4.489-4.64-4.489C254.15,377.739,252.074,379.748,252.074,382.229"/>
				<path fill="#FFFFFF" d="M203.121,396.23c0,2.477,2.075,4.492,4.633,4.492c2.557,0,4.635-2.016,4.635-4.492
					c0-2.478-2.078-4.493-4.635-4.493C205.196,391.737,203.121,393.753,203.121,396.23"/>
				<path fill="#FFFFFF" d="M133.112,360.227c0,2.48,2.075,4.489,4.632,4.489c2.562,0,4.64-2.009,4.64-4.489
					s-2.078-4.492-4.64-4.492C135.188,355.734,133.112,357.746,133.112,360.227"/>
				<path fill="#FFFFFF" d="M151.114,375.248c0,3.021,2.525,5.468,5.646,5.468c3.112,0,5.646-2.446,5.646-5.468
					s-2.533-5.467-5.646-5.467C153.64,369.781,151.114,372.227,151.114,375.248"/>
				<path fill="#FFFFFF" d="M151.114,335.371c0,2.951,2.474,5.341,5.517,5.341c3.042,0,5.516-2.39,5.516-5.341
					c0-2.956-2.474-5.346-5.516-5.346C153.588,330.025,151.114,332.415,151.114,335.371"/>
				<path fill="#FFFFFF" d="M222.447,331.175c0,2.478,2.078,4.485,4.632,4.485c2.561,0,4.64-2.008,4.64-4.485
					c0-2.483-2.079-4.492-4.64-4.492C224.525,326.683,222.447,328.691,222.447,331.175"/>
				<path fill="#FFFFFF" d="M121.109,114.197c0,2.477,2.074,4.492,4.635,4.492c2.562,0,4.633-2.016,4.633-4.492
					c0-2.48-2.071-4.486-4.633-4.486C123.184,109.711,121.109,111.717,121.109,114.197"/>
				<path fill="#FFFFFF" d="M185.119,356.227c0,2.48,2.075,4.489,4.633,4.489c2.561,0,4.639-2.009,4.639-4.489
					s-2.078-4.489-4.639-4.489C187.194,351.737,185.119,353.746,185.119,356.227"/>
				<path fill="#FFFFFF" d="M229.123,300.22c0,2.477,2.075,4.489,4.636,4.489c2.558,0,4.636-2.013,4.636-4.489
					c0-2.48-2.078-4.493-4.636-4.493C231.198,295.727,229.123,297.739,229.123,300.22"/>
				<path fill="#FFFFFF" d="M251.128,232.209c0,2.484,2.075,4.492,4.633,4.492c2.561,0,4.639-2.008,4.639-4.492
					c0-2.477-2.078-4.485-4.639-4.485C253.203,227.724,251.128,229.732,251.128,232.209"/>
				<path fill="#FFFFFF" d="M207.117,272.216c0,2.478,2.079,4.489,4.637,4.489c2.561,0,4.635-2.012,4.635-4.489
					c0-2.48-2.074-4.489-4.635-4.489C209.196,267.727,207.117,269.735,207.117,272.216"/>
				<path fill="#FFFFFF" d="M213.221,244.768c0,2.478,2.075,4.482,4.636,4.482s4.632-2.005,4.632-4.482
					c0-2.48-2.071-4.492-4.632-4.492S213.221,242.287,213.221,244.768"/>
				<path fill="#FFFFFF" d="M202.545,298.483c0,3.134,2.623,5.677,5.858,5.677s5.854-2.543,5.854-5.677s-2.619-5.67-5.854-5.67
					S202.545,295.35,202.545,298.483"/>
				<path fill="#FFFFFF" d="M213.123,170.204c0,2.483,2.078,4.489,4.636,4.489s4.632-2.006,4.632-4.489
					c0-2.48-2.074-4.489-4.632-4.489S213.123,167.724,213.123,170.204"/>
				<path fill="#FFFFFF" d="M220.749,147.325c0,2.483,2.075,4.489,4.636,4.489c2.558,0,4.633-2.006,4.633-4.489
					c0-2.48-2.075-4.489-4.633-4.489C222.824,142.836,220.749,144.845,220.749,147.325"/>
				<path fill="#FFFFFF" d="M222.272,212.911c0,2.477,2.075,4.485,4.636,4.485c2.557,0,4.636-2.009,4.636-4.485
					c0-2.48-2.079-4.492-4.636-4.492C224.348,208.419,222.272,210.431,222.272,212.911"/>
				<path fill="#FFFFFF" d="M191.121,170.204c0,2.483,2.075,4.489,4.633,4.489c2.561,0,4.635-2.006,4.635-4.489
					c0-2.48-2.074-4.489-4.635-4.489C193.196,165.715,191.121,167.724,191.121,170.204"/>
				<path fill="#FFFFFF" d="M181.969,150.379c0,2.477,2.071,4.488,4.632,4.488s4.64-2.012,4.64-4.488c0-2.48-2.079-4.489-4.64-4.489
					S181.969,147.898,181.969,150.379"/>
				<path fill="#FFFFFF" d="M146.887,193.086c0,2.477,2.075,4.485,4.633,4.485c2.561,0,4.639-2.009,4.639-4.485
					c0-2.484-2.078-4.492-4.639-4.492C148.962,188.594,146.887,190.602,146.887,193.086"/>
				<path fill="#FFFFFF" d="M172.818,194.609c0,2.48,2.072,4.488,4.633,4.488c2.558,0,4.636-2.008,4.636-4.488
					s-2.078-4.489-4.636-4.489C174.891,190.12,172.818,192.129,172.818,194.609"/>
				<path fill="#FFFFFF" d="M271.128,156.202c0,2.477,2.079,4.492,4.636,4.492c2.561,0,4.636-2.016,4.636-4.492
					c0-2.478-2.075-4.489-4.636-4.489C273.207,151.713,271.128,153.725,271.128,156.202"/>
				<path fill="#FFFFFF" d="M275.705,137.9c0,2.477,2.078,4.492,4.635,4.492c2.561,0,4.637-2.016,4.637-4.492
					c0-2.48-2.076-4.49-4.637-4.49C277.783,133.41,275.705,135.42,275.705,137.9"/>
				<path fill="#FFFFFF" d="M180.322,313.575c0,3.224,2.701,5.845,6.03,5.845c3.333,0,6.033-2.621,6.033-5.845
					c0-3.231-2.7-5.849-6.033-5.849C183.023,307.727,180.322,310.344,180.322,313.575"/>
				<path fill="#FFFFFF" d="M181.119,281.642c0,2.477,2.075,4.485,4.636,4.485c2.558,0,4.633-2.009,4.633-4.485
					c0-2.48-2.075-4.489-4.633-4.489C183.194,277.152,181.119,279.161,181.119,281.642"/>
				<path fill="#FFFFFF" d="M174.82,239.102c0,3.092,2.596,5.604,5.785,5.604s5.778-2.512,5.778-5.604s-2.589-5.6-5.778-5.6
					S174.82,236.01,174.82,239.102"/>
				<path fill="#FFFFFF" d="M205.427,415.35c0,1.865,1.562,3.371,3.483,3.371c1.921,0,3.479-1.506,3.479-3.371
					c0-1.862-1.558-3.371-3.479-3.371C206.988,411.979,205.427,413.487,205.427,415.35"/>
				<path fill="#FFFFFF" d="M170.35,404.674c0,1.861,1.561,3.371,3.486,3.371c1.914,0,3.476-1.51,3.476-3.371
					c0-1.862-1.562-3.371-3.476-3.371C171.91,401.303,170.35,402.812,170.35,404.674"/>
				<path fill="#FFFFFF" d="M219.156,366.546c0,1.862,1.558,3.371,3.479,3.371c1.921,0,3.482-1.509,3.482-3.371
					s-1.562-3.374-3.482-3.374C220.714,363.172,219.156,364.684,219.156,366.546"/>
				<path fill="#FFFFFF" d="M235.932,410.197c0,2.382,1.994,4.314,4.454,4.314s4.458-1.933,4.458-4.314
					c0-2.387-1.998-4.322-4.458-4.322S235.932,407.811,235.932,410.197"/>
				<path fill="#FFFFFF" d="M243.558,372.646c0,1.866,1.562,3.371,3.483,3.371c1.918,0,3.476-1.505,3.476-3.371
					c0-1.862-1.558-3.371-3.476-3.371C245.119,369.274,243.558,370.783,243.558,372.646"/>
				<path fill="#FFFFFF" d="M137.109,456.24c0,2.477,2.074,4.486,4.635,4.486c2.558,0,4.64-2.01,4.64-4.486
					c0-2.48-2.082-4.492-4.64-4.492C139.184,451.748,137.109,453.76,137.109,456.24"/>
				<path fill="#FFFFFF" d="M187.117,414.231c0,2.48,2.075,4.489,4.637,4.489c2.557,0,4.632-2.009,4.632-4.489
					c0-2.477-2.075-4.492-4.632-4.492C189.192,409.739,187.117,411.755,187.117,414.231"/>
				<path fill="#FFFFFF" d="M293.13,364.227c0,2.48,2.075,4.489,4.636,4.489c2.557,0,4.636-2.009,4.636-4.489
					s-2.079-4.492-4.636-4.492C295.205,359.734,293.13,361.746,293.13,364.227"/>
				<path fill="#FFFFFF" d="M273.979,66.818c0,2.477,2.079,4.489,4.636,4.489c2.558,0,4.636-2.013,4.636-4.489
					c0-2.483-2.078-4.488-4.636-4.488C276.058,62.33,273.979,64.335,273.979,66.818"/>
				<path fill="#FFFFFF" d="M245.15,51.238c0,2.483,2.075,4.492,4.637,4.492c2.557,0,4.632-2.009,4.632-4.492
					c0-2.478-2.075-4.486-4.632-4.486C247.226,46.752,245.15,48.761,245.15,51.238"/>
				<path fill="#FFFFFF" d="M163.666,49.719c0,2.477,2.075,4.485,4.636,4.485c2.558,0,4.636-2.009,4.636-4.485
					c0-2.484-2.078-4.493-4.636-4.493C165.741,45.226,163.666,47.234,163.666,49.719"/>
				<path fill="#FFFFFF" d="M137.734,66.494c0,2.477,2.082,4.488,4.636,4.488c2.558,0,4.64-2.012,4.64-4.488
					c0-2.48-2.082-4.493-4.64-4.493C139.816,62.001,137.734,64.014,137.734,66.494"/>
			</g>
		</g>
		<g>
			<g>
				<path fill="#FFFFFF" d="M170.224,262.483c0,7.298,6.109,13.212,13.638,13.212c7.539,0,13.652-5.914,13.652-13.212
					c0-7.302-6.113-13.22-13.652-13.22C176.333,249.264,170.224,255.182,170.224,262.483"/>
				<path fill="#FFFFFF" d="M8.291,314.043c0,12.018,10.062,21.761,22.467,21.761c12.408,0,22.47-9.743,22.47-21.761
					c0-12.021-10.062-21.764-22.47-21.764C18.353,292.279,8.291,302.021,8.291,314.043"/>
				<path fill="#FFFFFF" d="M233.874,213.148c0,4.717,3.951,8.545,8.821,8.545c4.877,0,8.824-3.828,8.824-8.545
					c0-4.719-3.947-8.548-8.824-8.548C237.825,204.601,233.874,208.43,233.874,213.148"/>
				<g>
					<path fill="#FFFFFF" d="M30.102,399.688c0,8.591,7.186,15.55,16.052,15.55s16.053-6.959,16.053-15.55
						c0-8.58-7.187-15.55-16.053-15.55S30.102,391.108,30.102,399.688"/>
					<path fill="#FFFFFF" d="M130.213,128.464c0,7.302,6.109,13.223,13.646,13.223c7.538,0,13.648-5.921,13.648-13.223
						c0-7.298-6.11-13.219-13.648-13.219C136.322,115.245,130.213,121.166,130.213,128.464"/>
					<path fill="#FFFFFF" d="M176.222,452.502c0,7.305,6.11,13.22,13.642,13.22c7.543,0,13.646-5.915,13.646-13.22
						c0-7.297-6.103-13.215-13.646-13.215C182.332,439.287,176.222,445.205,176.222,452.502"/>
					<path fill="#FFFFFF" d="M85.637,446.504c0,7.302,6.106,13.216,13.642,13.216s13.649-5.914,13.649-13.216
						c0-7.301-6.114-13.219-13.649-13.219S85.637,439.203,85.637,446.504"/>
					<path fill="#FFFFFF" d="M122.217,340.492c0,7.294,6.109,13.216,13.642,13.216c7.535,0,13.648-5.922,13.648-13.216
						c0-7.302-6.113-13.223-13.648-13.223C128.326,327.27,122.217,333.19,122.217,340.492"/>
					<path fill="#FFFFFF" d="M236.229,312.484c0,7.302,6.11,13.22,13.646,13.22s13.649-5.918,13.649-13.22
						c0-7.297-6.114-13.219-13.649-13.219S236.229,305.188,236.229,312.484"/>
					<path fill="#FFFFFF" d="M118.213,182.469c0,7.302,6.109,13.223,13.642,13.223c7.542,0,13.649-5.921,13.649-13.223
						c0-7.294-6.107-13.212-13.649-13.212C124.322,169.257,118.213,175.175,118.213,182.469"/>
					<path fill="#FFFFFF" d="M288.232,152.468c0,7.301,6.117,13.219,13.648,13.219c7.535,0,13.646-5.918,13.646-13.219
						c0-7.298-6.11-13.22-13.646-13.22C294.35,139.248,288.232,145.17,288.232,152.468"/>
					<path fill="#FFFFFF" d="M256.899,215.954c0,9.796,8.202,17.739,18.313,17.739c10.113,0,18.313-7.943,18.313-17.739
						c0-9.792-8.199-17.739-18.313-17.739C265.102,198.215,256.899,206.162,256.899,215.954"/>
					<path fill="#FFFFFF" d="M225.706,170.878c0,9.286,7.773,16.811,17.355,16.811c9.586,0,17.359-7.524,17.359-16.811
						c0-9.285-7.773-16.817-17.359-16.817C233.479,154.061,225.706,161.593,225.706,170.878"/>
					<path fill="#FFFFFF" d="M246.897,405.977c0,9.796,8.202,17.74,18.316,17.74c10.11,0,18.31-7.944,18.31-17.74
						c0-9.792-8.199-17.743-18.31-17.743C255.1,388.233,246.897,396.185,246.897,405.977"/>
					<path fill="#FFFFFF" d="M283.883,347.161c0,4.72,3.947,8.548,8.82,8.548c4.874,0,8.821-3.828,8.821-8.548
						c0-4.716-3.947-8.545-8.821-8.545C287.83,338.616,283.883,342.445,283.883,347.161"/>
					<path fill="#FFFFFF" d="M164.344,343.144c0,4.716,3.947,8.542,8.817,8.542c4.877,0,8.825-3.826,8.825-8.542
						c0-4.724-3.948-8.552-8.825-8.552C168.291,334.592,164.344,338.42,164.344,343.144"/>
					<path fill="#FFFFFF" d="M161.867,219.15c0,4.717,3.951,8.541,8.824,8.541c4.866,0,8.821-3.824,8.821-8.541
						c0-4.72-3.955-8.549-8.821-8.549C165.818,210.602,161.867,214.431,161.867,219.15"/>
					<path fill="#FFFFFF" d="M259.879,129.139c0,4.719,3.951,8.545,8.821,8.545s8.821-3.826,8.821-8.545
						c0-4.72-3.951-8.545-8.821-8.545S259.879,124.419,259.879,129.139"/>
					<path fill="#FFFFFF" d="M177.87,397.173c0,4.717,3.948,8.542,8.821,8.542c4.87,0,8.821-3.825,8.821-8.542
						c0-4.723-3.951-8.552-8.821-8.552C181.818,388.621,177.87,392.45,177.87,397.173"/>
					<path fill="#FFFFFF" d="M199.872,367.168c0,4.713,3.951,8.541,8.821,8.541c4.869,0,8.82-3.828,8.82-8.541
						c0-4.723-3.951-8.549-8.82-8.549C203.823,358.619,199.872,362.445,199.872,367.168"/>
					<path fill="#FFFFFF" d="M171.865,427.172c0,4.719,3.951,8.548,8.824,8.548s8.824-3.829,8.824-8.548
						c0-4.721-3.951-8.545-8.824-8.545S171.865,422.451,171.865,427.172"/>
					<path fill="#FFFFFF" d="M137.109,442.238c0,2.478,2.074,4.489,4.635,4.489c2.558,0,4.64-2.012,4.64-4.489
						c0-2.48-2.082-4.492-4.64-4.492C139.184,437.746,137.109,439.758,137.109,442.238"/>
					<path fill="#FFFFFF" d="M236.55,340.698c0,2.48,2.075,4.489,4.636,4.489c2.554,0,4.633-2.009,4.633-4.489
						s-2.079-4.493-4.633-4.493C238.625,336.205,236.55,338.218,236.55,340.698"/>
					<path fill="#FFFFFF" d="M203.645,152.195c0,1.32,1.107,2.393,2.471,2.393c1.373,0,2.477-1.072,2.477-2.393
						c0-1.324-1.104-2.396-2.477-2.396C204.752,149.799,203.645,150.871,203.645,152.195"/>
					<path fill="#FFFFFF" d="M202.118,265.055c0,1.327,1.107,2.396,2.478,2.396c1.365,0,2.473-1.069,2.473-2.396
						c0-1.324-1.107-2.394-2.473-2.394C203.226,262.661,202.118,263.73,202.118,265.055"/>
					<path fill="#FFFFFF" d="M220.421,347.416c0,1.324,1.11,2.396,2.477,2.396c1.362,0,2.474-1.072,2.474-2.396
						c0-1.328-1.111-2.4-2.474-2.4C221.531,345.016,220.421,346.088,220.421,347.416"/>
					<path fill="#FFFFFF" d="M224.997,313.861c0,1.324,1.107,2.396,2.474,2.396c1.365,0,2.477-1.072,2.477-2.396
						s-1.111-2.396-2.477-2.396C226.104,311.465,224.997,312.537,224.997,313.861"/>
					<path fill="#FFFFFF" d="M229.573,400.922c0.066,1.32,1.229,2.337,2.593,2.268c1.369-0.07,2.421-1.195,2.351-2.52
						c-0.066-1.32-1.226-2.337-2.589-2.268C230.563,398.469,229.507,399.598,229.573,400.922"/>
					<path fill="#FFFFFF" d="M241.779,396.342c0.066,1.327,1.227,2.341,2.586,2.271c1.365-0.066,2.424-1.198,2.354-2.515
						c-0.065-1.321-1.226-2.341-2.595-2.271C242.762,393.893,241.713,395.024,241.779,396.342"/>
					<path fill="#FFFFFF" d="M267.705,382.619c0.065,1.32,1.229,2.338,2.588,2.271c1.369-0.07,2.421-1.202,2.354-2.522
						c-0.066-1.321-1.229-2.334-2.596-2.268C268.689,380.167,267.639,381.295,267.705,382.619"/>
					<path fill="#FFFFFF" d="M185.347,384.146c0.066,1.32,1.226,2.333,2.592,2.267c1.362-0.069,2.414-1.194,2.348-2.522
						c-0.066-1.316-1.226-2.333-2.592-2.267C186.335,381.693,185.28,382.822,185.347,384.146"/>
					<path fill="#FFFFFF" d="M196.022,407.018c0.066,1.328,1.226,2.341,2.589,2.274c1.365-0.069,2.421-1.198,2.351-2.522
						c-0.063-1.316-1.226-2.334-2.589-2.268C197.008,404.568,195.956,405.697,196.022,407.018"/>
					<path fill="#FFFFFF" d="M221.947,226.931c0,1.32,1.107,2.396,2.474,2.396s2.474-1.076,2.474-2.396c0-1.328-1.107-2.4-2.474-2.4
						S221.947,225.603,221.947,226.931"/>
					<path fill="#FFFFFF" d="M290.58,133.893c0,1.32,1.107,2.396,2.473,2.396c1.366,0,2.477-1.076,2.477-2.396
						c0-1.324-1.11-2.396-2.477-2.396C291.688,131.496,290.58,132.568,290.58,133.893"/>
					<path fill="#FFFFFF" d="M211.268,157.729c0,2.48,2.079,4.489,4.636,4.489c2.562,0,4.636-2.009,4.636-4.489
						c0-2.483-2.074-4.489-4.636-4.489C213.347,153.239,211.268,155.245,211.268,157.729"/>
					<path fill="#FFFFFF" d="M214.321,200.433c0,2.477,2.075,4.489,4.632,4.489c2.561,0,4.636-2.013,4.636-4.489
						c0-2.48-2.075-4.489-4.636-4.489C216.396,195.943,214.321,197.952,214.321,200.433"/>
					<path fill="#FFFFFF" d="M159.414,198.906c0,2.48,2.076,4.488,4.633,4.488c2.561,0,4.64-2.008,4.64-4.488
						s-2.079-4.489-4.64-4.489C161.49,194.417,159.414,196.426,159.414,198.906"/>
					<path fill="#FFFFFF" d="M217.119,286.214c0,2.484,2.079,4.493,4.636,4.493c2.562,0,4.64-2.009,4.64-4.493
						c0-2.479-2.078-4.485-4.64-4.485C219.198,281.729,217.119,283.734,217.119,286.214"/>
					<path fill="#FFFFFF" d="M219.121,406.231c0,2.48,2.075,4.489,4.636,4.489s4.636-2.009,4.636-4.489s-2.075-4.489-4.636-4.489
						S219.121,403.751,219.121,406.231"/>
					<path fill="#FFFFFF" d="M119.104,396.23c0,2.477,2.082,4.492,4.64,4.492c2.557,0,4.632-2.016,4.632-4.492
						c0-2.478-2.075-4.493-4.632-4.493C121.186,391.737,119.104,393.753,119.104,396.23"/>
					<path fill="#FFFFFF" d="M145.874,364.481c0,1.81,1.52,3.284,3.392,3.284c1.873,0,3.389-1.475,3.389-3.284
						c0-1.816-1.516-3.291-3.389-3.291C147.394,361.19,145.874,362.665,145.874,364.481"/>
					<path fill="#FFFFFF" d="M203.121,436.233c0,2.48,2.075,4.489,4.633,4.489c2.557,0,4.635-2.009,4.635-4.489
						s-2.078-4.489-4.635-4.489C205.196,431.744,203.121,433.753,203.121,436.233"/>
					<path fill="#FFFFFF" d="M219.121,356.227c0,2.48,2.075,4.489,4.636,4.489s4.636-2.009,4.636-4.489s-2.075-4.489-4.636-4.489
						S219.121,353.746,219.121,356.227"/>
					<path fill="#FFFFFF" d="M199.697,312.796c0,2.483,2.075,4.489,4.633,4.489c2.557,0,4.632-2.006,4.632-4.489
						c0-2.48-2.075-4.493-4.632-4.493C201.772,308.303,199.697,310.315,199.697,312.796"/>
					<path fill="#FFFFFF" d="M204.885,179.325c0,1.652,1.384,2.997,3.092,2.997c1.701,0,3.085-1.345,3.085-2.997
						c0-1.649-1.384-2.99-3.085-2.99C206.269,176.335,204.885,177.676,204.885,179.325"/>
					<path fill="#FFFFFF" d="M195.694,208.335c0,2.477,2.075,4.489,4.632,4.489c2.561,0,4.636-2.013,4.636-4.489
						c0-2.48-2.075-4.489-4.636-4.489C197.77,203.846,195.694,205.854,195.694,208.335"/>
					<path fill="#FFFFFF" d="M148.414,148.852c0,2.477,2.078,4.493,4.636,4.493c2.561,0,4.636-2.017,4.636-4.493
						s-2.075-4.488-4.636-4.488C150.492,144.363,148.414,146.375,148.414,148.852"/>
					<path fill="#FFFFFF" d="M190.842,246.315c0,2.478,2.078,4.489,4.636,4.489s4.636-2.012,4.636-4.489
						c0-2.48-2.078-4.492-4.636-4.492S190.842,243.835,190.842,246.315"/>
					<path fill="#FFFFFF" d="M197.804,422.979c0,1.858,1.559,3.367,3.479,3.367c1.922,0,3.479-1.509,3.479-3.367
						c0-1.866-1.558-3.375-3.479-3.375C199.362,419.604,197.804,421.113,197.804,422.979"/>
					<path fill="#FFFFFF" d="M281.688,366.546c0,1.862,1.562,3.371,3.479,3.371c1.922,0,3.479-1.509,3.479-3.371
						s-1.558-3.374-3.479-3.374C283.25,363.172,281.688,364.684,281.688,366.546"/>
					<path fill="#FFFFFF" d="M253.126,338.225c0,2.477,2.075,4.485,4.636,4.485c2.558,0,4.637-2.009,4.637-4.485
						s-2.079-4.492-4.637-4.492C255.201,333.732,253.126,335.748,253.126,338.225"/>
					<path fill="#FFFFFF" d="M203.376,11.476c0,3.626,3.036,6.567,6.777,6.567c3.749,0,6.788-2.941,6.788-6.567
						c0-3.63-3.039-6.571-6.788-6.571C206.412,4.904,203.376,7.846,203.376,11.476"/>
				</g>
			</g>
		</g>
	</g>
</g>
</svg>
